PathFileType	4	(X/Y/Z)	Kaydara																																																																																																																									
DataRate	CameraRate	NumFrames	NumMarkers	Units	OrigDataRate	OrigDataStartFrame	OrigNumFrames																																																																																																																					
30	30	6	41	mm	30	34	132																																																																																																																					
Frame#	Time	SALE_LFHD			SALE_RFHD			SALE_LBHD			SALE_RBHD			SALE_LFTShould			SALE_RFTShould			SALE_LRRShould			SALE_RRRShould			SALE_T10			SALE_STRN			SALE_TRUN			SALE_LSHO			SALE_LUPA			SALE_LELB			SALE_LFRM			SALE_LWRA			SALE_LWRB			SALE_LFIN			SALE_RSHO			SALE_RUPA			SALE_RELB			SALE_RFRM			SALE_RWRB			SALE_RFIN			SALE_LFWT			SALE_RFWT			SALE_LBWT			SALE_RBWT			SALE_LTHI			SALE_LKNE			SALE_RWRA			SALE_LSHN			SALE_LANK			SALE_LHEE			SALE_LTOE			SALE_RTHI			SALE_RKNE			SALE_RSHN			SALE_RANK			SALE_RHEE			SALE_RTOE		
		X1	Y1	Z1	X2	Y2	Z2	X3	Y3	Z3	X4	Y4	Z4	X5	Y5	Z5	X6	Y6	Z6	X7	Y7	Z7	X8	Y8	Z8	X9	Y9	Z9	X10	Y10	Z10	X11	Y11	Z11	X12	Y12	Z12	X13	Y13	Z13	X14	Y14	Z14	X15	Y15	Z15	X16	Y16	Z16	X17	Y17	Z17	X18	Y18	Z18	X19	Y19	Z19	X20	Y20	Z20	X21	Y21	Z21	X22	Y22	Z22	X23	Y23	Z23	X24	Y24	Z24	X25	Y25	Z25	X26	Y26	Z26	X27	Y27	Z27	X28	Y28	Z28	X29	Y29	Z29	X30	Y30	Z30	X31	Y31	Z31	X32	Y32	Z32	X33	Y33	Z33	X34	Y34	Z34	X35	Y35	Z35	X36	Y36	Z36	X37	Y37	Z37	X38	Y38	Z38	X39	Y39	Z39	X40	Y40	Z40	X41	Y41	Z41
																																																																																																																												
34	1.1	253.36361	1651.07666	-1932.26685	122.08095	1648.26935	-1931.97235	249.42902	1637.71439	-2065.88547	122.57566	1634.23981	-2059.11835	266.95807	1394.54117	-1975.78888	125.25606	1391.09756	-1971.30188	255.14957	1449.35822	-2091.77643	105.85902	1452.52899	-2076.87668	174.63572	1296.91574	-2154.86771	194.86055	1321.48849	-1925.11002	194.23779	1234.85184	-1884.63089	378.41774	1419.21295	-2052.96677	417.64423	1210.83031	-2094.75067	400.85411	1103.79173	-2121.92383	436.83525	995.87402	-2099.38263	391.94675	857.82455	-2022.57828	448.22727	850.61905	-2072.92313	455.15312	808.38455	-2023.92838	15.39648	1420.22552	-2027.83554	-22.72626	1192.93457	-2094.25949	-52.46816	1092.57309	-2050.3447	-47.87665	979.5713	-2061.97098	-67.94698	841.26839	-2017.58545	-80.70264	802.98096	-1962.88666	316.22654	974.0976	-1958.73383	35.83773	972.69424	-1964.29779	259.9744	1044.95567	-2122.21405	82.72004	1049.62357	-2125.7048	309.57895	677.6223	-2130.79926	299.39594	508.34038	-2051.07178	-25.40174	852.61375	-1960.7309	293.841	305.10336	-2073.24173	289.5524	126.84654	-2140.92072	247.83667	76.23238	-2207.01782	269.84995	89.62819	-2012.47757	28.00093	726.99547	-2132.63885	46.56361	567.29309	-2033.96439	89.45376	371.39759	-2057.72781	38.63874	124.39107	-2135.46509	42.11071	80.56072	-2019.56879	84.01856	62.05831	-2208.28735
35	1.133	254.86206	1651.02875	-1926.51398	123.92055	1648.12622	-1925.69824	250.5558	1636.88004	-2060.15182	123.7718	1633.29163	-2052.80655	268.51353	1393.90991	-1969.27078	127.53609	1390.44968	-1964.12369	256.14794	1449.38766	-2085.32379	107.0373	1452.23724	-2069.49448	175.68836	1297.14813	-2148.68073	196.92381	1320.70816	-1919.02603	196.55891	1233.91174	-1878.77487	379.57405	1419.1127	-2047.42538	419.04659	1212.2541	-2092.94006	402.2488	1105.54047	-2121.6127	438.83141	997.23465	-2101.16089	395.93601	858.42468	-2025.5632	450.8506	851.39763	-2077.18643	458.99052	809.05121	-2028.49655	16.85681	1419.63776	-2020.3096	-20.86836	1192.92648	-2088.29697	-50.69946	1092.21466	-2044.86176	-46.09609	979.13574	-2056.65466	-65.60384	840.65323	-2012.58545	-78.13725	802.27219	-1957.62421	318.65337	973.79616	-1954.16321	37.56826	972.04063	-1959.73038	261.86474	1045.02037	-2117.87048	84.83295	1049.56024	-2120.80292	310.33823	676.17043	-2124.27475	299.32762	507.48878	-2042.92267	-22.8585	851.78818	-1955.87723	293.1105	303.75547	-2068.43842	289.48477	127.00193	-2139.944	248.00615	76.30133	-2207.22031	268.53626	90.88911	-2013.07388	30.15779	726.23131	-2126.95221	48.97169	566.81927	-2027.46796	91.51316	369.82918	-2052.60803	38.79943	124.48221	-2134.97864	41.98641	81.41159	-2021.65771	83.79861	61.74374	-2208.77167
36	1.167	256.86533	1650.50766	-1919.95941	125.69302	1647.46597	-1918.47519	251.73578	1635.63293	-2053.55133	125.04273	1631.79581	-2045.36407	272.34596	1393.60748	-1963.4642	129.07364	1388.68973	-1956.38641	257.36773	1448.54019	-2077.35443	108.43157	1451.25504	-2060.77866	176.99818	1296.72256	-2141.27701	199.45675	1319.03091	-1911.68747	199.54596	1232.23228	-1871.69724	381.17592	1418.24448	-2040.83527	420.65746	1212.65579	-2089.91089	403.87886	1106.44325	-2120.10651	441.57711	998.30399	-2103.42667	401.29776	857.35222	-2030.49591	454.80419	851.47499	-2083.45245	463.86978	807.89047	-2035.53741	18.66542	1418.11462	-2011.27472	-19.11347	1192.20161	-2080.94589	-48.93612	1091.007	-2038.10989	-44.35339	977.84775	-2050.42099	-63.10628	839.21593	-2006.78894	-75.1053	800.54192	-1951.68335	321.38935	972.98462	-1948.42789	39.95525	971.241	-1953.25897	264.16122	1043.81645	-2111.62613	87.16256	1048.4568	-2114.54865	310.78346	675.11215	-2117.78046	299.64613	506.55052	-2036.5654	-19.87281	850.09659	-1950.49118	292.53031	302.41072	-2064.72946	289.43369	126.83851	-2139.26147	248.4355	76.28876	-2207.63412	266.64749	91.83595	-2013.55972	32.62774	725.16594	-2120.30075	51.5782	565.96745	-2020.92667	93.12257	368.59734	-2048.68866	39.25582	124.58242	-2134.56238	42.45728	81.92566	-2021.59073	83.91339	61.64794	-2208.96744
37	1.2	258.60682	1649.50592	-1912.00104	127.67749	1645.90988	-1909.96368	253.12336	1633.55682	-2045.38193	126.47064	1629.41025	-2036.82098	274.97915	1391.46637	-1954.71252	131.8824	1386.31927	-1947.02164	259.41687	1447.35703	-2068.63434	110.3658	1449.65042	-2051.01761	178.8162	1295.65811	-2132.7092	202.52672	1316.54816	-1903.06625	203.013	1229.52194	-1863.62625	383.26454	1416.48895	-2032.88208	422.79655	1212.18727	-2086.26617	405.9045	1106.45035	-2117.39426	444.921	998.45451	-2105.24933	407.48047	854.64005	-2036.36246	459.88789	851.24252	-2090.83405	470.12505	805.80872	-2044.74503	20.9337	1415.81268	-2001.20316	-17.1438	1190.58228	-2072.09641	-47.05905	1088.918	-2029.79675	-42.53413	975.9053	-2043.12485	-60.77555	836.94534	-2000.31403	-71.88926	797.87926	-1945.1329	324.67247	971.75125	-1941.31683	43.04911	970.01976	-1944.7261	266.61469	1042.27829	-2104.36188	89.55003	1047.18933	-2106.08917	312.11292	674.38026	-2111.61301	300.29831	505.26211	-2031.36688	-16.92258	847.47032	-1944.53842	292.63937	300.89092	-2062.53296	289.57218	126.6231	-2138.96088	248.88519	76.10536	-2208.18207	265.3721	92.51561	-2014.15192	35.13735	724.75769	-2112.88116	53.575	564.60632	-2015.81467	94.39197	367.37072	-2045.27725	39.68106	124.70386	-2134.36203	43.02803	82.01094	-2021.48697	84.00248	61.61504	-2209.16183
38	1.233	260.52555	1648.18176	-1902.53098	129.60774	1644.05548	-1900.28671	254.94661	1631.72729	-2036.15753	128.36402	1626.79779	-2026.95282	278.02988	1389.1449	-1944.81964	135.0591	1383.84094	-1936.43173	261.89436	1445.62347	-2058.47	112.76166	1447.75162	-2040.11978	181.15395	1294.07837	-2122.69043	206.06831	1313.88748	-1893.30261	206.89892	1226.70219	-1854.1655	385.78171	1414.2482	-2023.5054	425.4134	1211.15746	-2080.47592	408.66779	1105.88066	-2112.84424	449.01398	998.35823	-2105.91675	414.33491	851.35834	-2041.45432	465.76645	850.95322	-2098.25104	477.27276	803.38722	-2054.66187	23.65811	1413.17719	-1990.06012	-14.58802	1188.50227	-2062.1199	-44.76585	1086.95854	-2021.06949	-40.56599	973.81454	-2035.15198	-58.30836	834.59251	-1993.20969	-68.82922	795.10437	-1937.98523	328.41427	969.98451	-1932.97775	46.86725	968.28339	-1934.2717	269.05025	1040.99213	-2095.3862	92.10697	1046.1261	-2095.56198	314.63976	673.88771	-2105.62546	301.97107	503.94249	-2026.72211	-13.96118	844.64752	-1937.68188	293.09433	299.98188	-2059.65408	289.86309	126.29395	-2138.81012	249.25594	75.9372	-2208.69781	265.07772	92.82354	-2014.79218	36.68181	724.24835	-2104.12659	56.21264	563.11214	-2008.92441	96.12516	366.03817	-2041.47064	40.14781	124.65795	-2133.38303	43.48321	81.23994	-2020.51483	84.07598	62.0095	-2208.94577
39	1.267	262.54896	1646.8103	-1891.33118	131.92011	1641.85074	-1889.09607	257.21464	1629.99893	-2024.90997	130.68074	1624.34692	-2015.82886	281.69214	1387.09595	-1933.70956	138.74468	1381.91315	-1924.50089	264.80375	1443.75778	-2047.16354	115.72974	1445.88425	-2027.9892	183.8308	1292.34451	-2111.20926	210.02575	1311.56998	-1882.03979	211.13256	1224.32259	-1843.07785	388.7434	1412.08344	-2013.0159	428.64815	1209.62822	-2072.58133	412.23648	1104.7905	-2105.67444	453.77625	998.44406	-2104.7142	422.9771	847.61627	-2046.64352	472.49538	851.24748	-2105.0386	485.24693	801.31432	-2064.28391	26.90494	1410.8255	-1977.86621	-10.91394	1187.3761	-2052.25052	-42.00342	1085.40703	-2012.45361	-38.21381	972.21977	-2027.13104	-55.49053	832.79007	-1985.84396	-65.80678	793.13835	-1930.42953	332.27264	968.02498	-1923.87115	50.74458	966.06781	-1922.79816	271.58806	1039.6701	-2085.37689	94.63286	1044.95056	-2084.02817	317.65524	673.78418	-2099.64615	303.96954	502.57465	-2021.97861	-11.0642	842.55005	-1930.38391	294.10797	298.85752	-2056.97479	290.31103	125.80995	-2138.40347	249.58652	75.93798	-2209.02695	265.17536	92.68679	-2015.15228	37.86928	723.19466	-2093.5466	59.49962	561.06819	-1999.23523	99.1026	363.83095	-2035.36942	41.00875	124.85587	-2132.15454	43.7659	80.32883	-2019.44824	84.49065	62.50628	-2208.63434
